<?xml version="1.0" encoding="UTF-8" standalone="no"?>
<!DOCTYPE svg PUBLIC "-//W3C//DTD SVG 1.1//EN"
 "http://www.w3.org/Graphics/SVG/1.1/DTD/svg11.dtd">
<!-- Generated by graphviz version 2.38.0 (20140413.2041)
 -->
<!-- Title: () Pages: 1 -->
<svg width="1088pt" height="674pt"
 viewBox="0.00 0.00 1088.00 674.00" xmlns="http://www.w3.org/2000/svg" xmlns:xlink="http://www.w3.org/1999/xlink">
<g id="graph0" class="graph" transform="scale(1 1) rotate(0) translate(4 670)">
<title>()</title>
<polygon fill="white" stroke="none" points="-4,4 -4,-670 1084,-670 1084,4 -4,4"/>
<!-- 0 -->
<g id="node1" class="node"><title>0</title>
<ellipse fill="none" stroke="black" cx="64" cy="-648" rx="27" ry="18"/>
<text text-anchor="middle" x="64" y="-644.3" font-family="Times,serif" font-size="14.00">0</text>
</g>
<!-- 1 -->
<g id="node2" class="node"><title>1</title>
<ellipse fill="none" stroke="black" cx="27" cy="-561" rx="27" ry="18"/>
<text text-anchor="middle" x="27" y="-557.3" font-family="Times,serif" font-size="14.00">1</text>
</g>
<!-- 0&#45;&gt;1 -->
<g id="edge2" class="edge"><title>0&#45;&gt;1</title>
<path fill="none" stroke="black" d="M44.804,-635.068C37.1359,-629.167 29.152,-621.305 25,-612 21.8361,-604.909 21.1251,-596.675 21.54,-588.961"/>
<polygon fill="black" stroke="black" points="25.0296,-589.25 22.6789,-578.919 18.0742,-588.461 25.0296,-589.25"/>
<text text-anchor="middle" x="58" y="-600.8" font-family="Times,serif" font-size="14.00">(tl0) &amp; (tl1)</text>
</g>
<!-- 2 -->
<g id="node3" class="node"><title>2</title>
<ellipse fill="none" stroke="black" cx="323" cy="-474" rx="27" ry="18"/>
<text text-anchor="middle" x="323" y="-470.3" font-family="Times,serif" font-size="14.00">2</text>
</g>
<!-- 0&#45;&gt;2 -->
<g id="edge3" class="edge"><title>0&#45;&gt;2</title>
<path fill="none" stroke="black" d="M89.9551,-642.283C113.721,-637.214 149.304,-627.693 177,-612 216.98,-589.347 215.601,-568.242 254,-543 269.952,-532.514 278.792,-537.751 293,-525 300.525,-518.247 306.744,-509.153 311.532,-500.572"/>
<polygon fill="black" stroke="black" points="314.687,-502.09 316.159,-491.598 308.465,-498.882 314.687,-502.09"/>
<text text-anchor="middle" x="302.5" y="-557.3" font-family="Times,serif" font-size="14.00">((else)) &amp; ((else))</text>
</g>
<!-- 4 -->
<g id="node5" class="node"><title>4</title>
<ellipse fill="none" stroke="black" cx="798" cy="-300" rx="27" ry="18"/>
<text text-anchor="middle" x="798" y="-296.3" font-family="Times,serif" font-size="14.00">4</text>
</g>
<!-- 0&#45;&gt;4 -->
<g id="edge4" class="edge"><title>0&#45;&gt;4</title>
<path fill="none" stroke="black" d="M90.605,-644.409C137.178,-639.639 236.384,-628.427 319,-612 558.121,-564.454 695.09,-610.035 827,-405 842.777,-380.477 828.67,-347.353 815.173,-325.138"/>
<polygon fill="black" stroke="black" points="818.057,-323.152 809.709,-316.628 812.167,-326.934 818.057,-323.152"/>
<text text-anchor="middle" x="830" y="-470.3" font-family="Times,serif" font-size="14.00">((else)) &amp; (tl1)</text>
</g>
<!-- 8 -->
<g id="node9" class="node"><title>8</title>
<ellipse fill="none" stroke="black" cx="377" cy="-192" rx="27" ry="18"/>
<text text-anchor="middle" x="377" y="-188.3" font-family="Times,serif" font-size="14.00">8</text>
</g>
<!-- 0&#45;&gt;8 -->
<g id="edge1" class="edge"><title>0&#45;&gt;8</title>
<path fill="none" stroke="black" d="M90.1372,-642.821C108.866,-638.415 133.14,-629.55 147,-612 175.484,-575.932 133.059,-543.983 164,-510 185.048,-486.883 206.852,-510.573 232,-492 261.066,-470.533 250.574,-449.628 275,-423 284.013,-413.174 289.65,-414.505 299,-405 325.558,-378.002 318.96,-359.062 349,-336 366.743,-322.379 383.323,-336.43 396,-318 405.068,-304.817 404.486,-295.564 396,-282 386.301,-266.497 368.699,-279.503 359,-264 350.342,-250.16 354.894,-232.347 361.584,-218.025"/>
<polygon fill="black" stroke="black" points="364.896,-219.244 366.422,-208.76 358.691,-216.004 364.896,-219.244"/>
<text text-anchor="middle" x="316" y="-426.8" font-family="Times,serif" font-size="14.00">(tl0) &amp; ((else))</text>
</g>
<!-- 1&#45;&gt;2 -->
<g id="edge5" class="edge"><title>1&#45;&gt;2</title>
<path fill="none" stroke="black" d="M51.2229,-553.044C103.693,-537.977 227.993,-502.282 288.591,-484.881"/>
<polygon fill="black" stroke="black" points="289.797,-488.176 298.442,-482.052 287.865,-481.448 289.797,-488.176"/>
<text text-anchor="middle" x="240.5" y="-513.8" font-family="Times,serif" font-size="14.00">((else)) &amp; ((else))</text>
</g>
<!-- 3 -->
<g id="node4" class="node"><title>3</title>
<ellipse fill="none" stroke="black" cx="254" cy="-18" rx="27" ry="18"/>
<text text-anchor="middle" x="254" y="-14.3" font-family="Times,serif" font-size="14.00">3</text>
</g>
<!-- 1&#45;&gt;3 -->
<g id="edge6" class="edge"><title>1&#45;&gt;3</title>
<path fill="none" stroke="black" d="M29.6253,-542.855C36.7931,-498.45 58.8251,-376.573 98,-282 136.95,-187.969 205.054,-87.2733 236.799,-42.6331"/>
<polygon fill="black" stroke="black" points="239.668,-44.6392 242.644,-34.4711 233.977,-40.5636 239.668,-44.6392"/>
<text text-anchor="middle" x="185.5" y="-296.3" font-family="Times,serif" font-size="14.00">(((else)) &amp; (tl1)) | ((tl0) &amp; (tl1))</text>
</g>
<!-- 5 -->
<g id="node6" class="node"><title>5</title>
<ellipse fill="none" stroke="black" cx="287" cy="-105" rx="27" ry="18"/>
<text text-anchor="middle" x="287" y="-101.3" font-family="Times,serif" font-size="14.00">5</text>
</g>
<!-- 1&#45;&gt;5 -->
<g id="edge7" class="edge"><title>1&#45;&gt;5</title>
<path fill="none" stroke="black" d="M38.7236,-544.707C46.6765,-534.588 57.5976,-521.175 68,-510 75.9257,-501.486 80.9829,-501.955 87,-492 105.632,-461.174 103.667,-359.459 131,-336 180.613,-293.419 233.69,-366.978 277,-318 287.599,-306.014 285.864,-295.32 277,-282 265.522,-264.752 245.478,-281.248 234,-264 225.136,-250.68 233.358,-243.987 234,-228 235.557,-189.24 222.391,-175.037 241,-141 244.926,-133.818 251.02,-127.66 257.502,-122.602"/>
<polygon fill="black" stroke="black" points="259.61,-125.399 265.785,-116.79 255.589,-119.669 259.61,-125.399"/>
<text text-anchor="middle" x="172" y="-339.8" font-family="Times,serif" font-size="14.00">(tl0) &amp; ((else))</text>
</g>
<!-- 2&#45;&gt;0 -->
<g id="edge8" class="edge"><title>2&#45;&gt;0</title>
<path fill="none" stroke="black" d="M334.71,-490.441C349.799,-512.36 371.76,-552.746 351,-579 320.186,-617.968 171.199,-636.93 100.884,-643.826"/>
<polygon fill="black" stroke="black" points="100.328,-640.363 90.704,-644.794 100.99,-647.332 100.328,-640.363"/>
<text text-anchor="middle" x="400" y="-557.3" font-family="Times,serif" font-size="14.00">((else)) &amp; (tl1)</text>
</g>
<!-- 2&#45;&gt;2 -->
<g id="edge10" class="edge"><title>2&#45;&gt;2</title>
<path fill="none" stroke="black" d="M347.532,-481.752C358.508,-482.49 368,-479.906 368,-474 368,-470.032 363.715,-467.563 357.574,-466.594"/>
<polygon fill="black" stroke="black" points="357.647,-463.095 347.532,-466.248 357.406,-470.091 357.647,-463.095"/>
<text text-anchor="middle" x="416.5" y="-470.3" font-family="Times,serif" font-size="14.00">((else)) &amp; ((else))</text>
</g>
<!-- 2&#45;&gt;8 -->
<g id="edge9" class="edge"><title>2&#45;&gt;8</title>
<path fill="none" stroke="black" d="M348.347,-467.465C367.238,-462.333 392.808,-453.153 411,-438 452.122,-403.749 430.059,-365.061 475,-336 523.981,-304.327 566.688,-361.982 605,-318 615.509,-305.935 615.827,-293.78 605,-282 572.856,-247.025 427.604,-295.445 392,-264 379.918,-253.33 376.166,-235.59 375.436,-220.513"/>
<polygon fill="black" stroke="black" points="378.933,-220.119 375.362,-210.144 371.933,-220.169 378.933,-220.119"/>
<text text-anchor="middle" x="516" y="-339.8" font-family="Times,serif" font-size="14.00">(tl0) &amp; ((else))</text>
</g>
<!-- 9 -->
<g id="node10" class="node"><title>9</title>
<ellipse fill="none" stroke="black" cx="645" cy="-387" rx="27" ry="18"/>
<text text-anchor="middle" x="645" y="-383.3" font-family="Times,serif" font-size="14.00">9</text>
</g>
<!-- 2&#45;&gt;9 -->
<g id="edge11" class="edge"><title>2&#45;&gt;9</title>
<path fill="none" stroke="black" d="M350.206,-473.879C398.624,-474.468 502.071,-471.279 581,-438 589.825,-434.279 607.305,-420.428 621.77,-408.246"/>
<polygon fill="black" stroke="black" points="624.081,-410.875 629.422,-401.724 619.541,-405.547 624.081,-410.875"/>
<text text-anchor="middle" x="635" y="-426.8" font-family="Times,serif" font-size="14.00">(tl0) &amp; (tl1)</text>
</g>
<!-- 4&#45;&gt;2 -->
<g id="edge13" class="edge"><title>4&#45;&gt;2</title>
<path fill="none" stroke="black" d="M797.625,-318.334C796.491,-329.033 793.319,-342.326 785,-351 766.023,-370.786 748.741,-353.689 726,-369 693.238,-391.058 704.759,-419.246 670,-438 643.172,-452.475 443.814,-465.836 359.976,-470.877"/>
<polygon fill="black" stroke="black" points="359.65,-467.39 349.875,-471.478 360.065,-474.378 359.65,-467.39"/>
<text text-anchor="middle" x="774.5" y="-383.3" font-family="Times,serif" font-size="14.00">((else)) &amp; ((else))</text>
</g>
<!-- 4&#45;&gt;3 -->
<g id="edge14" class="edge"><title>4&#45;&gt;3</title>
<path fill="none" stroke="black" d="M816.462,-286.657C854.48,-259.707 934.96,-193.786 898,-141 827.605,-40.4605 418.589,-22.7331 291.597,-19.6435"/>
<polygon fill="black" stroke="black" points="291.304,-16.1361 281.228,-19.409 291.146,-23.1343 291.304,-16.1361"/>
<text text-anchor="middle" x="992.5" y="-144.8" font-family="Times,serif" font-size="14.00">(((else)) &amp; (tl1)) | ((tl0) &amp; (tl1))</text>
</g>
<!-- 4&#45;&gt;8 -->
<g id="edge12" class="edge"><title>4&#45;&gt;8</title>
<path fill="none" stroke="black" d="M776.168,-288.991C770.055,-286.453 763.346,-283.908 757,-282 716.683,-269.876 702.876,-280.159 664,-264 637.705,-253.071 637.522,-238.365 611,-228 544.842,-202.144 461.294,-195.249 414.034,-193.497"/>
<polygon fill="black" stroke="black" points="414.062,-189.996 403.957,-193.181 413.843,-196.993 414.062,-189.996"/>
<text text-anchor="middle" x="705" y="-242.3" font-family="Times,serif" font-size="14.00">(tl0) &amp; ((else))</text>
</g>
<!-- 5&#45;&gt;0 -->
<g id="edge15" class="edge"><title>5&#45;&gt;0</title>
<path fill="none" stroke="black" d="M290.032,-123.153C297.54,-167.783 314.931,-286.257 294,-318 278.162,-342.019 194.598,-347.936 175,-369 97.162,-452.66 145.277,-511.443 91,-612 88.8083,-616.06 86.1568,-620.144 83.3823,-624.016"/>
<polygon fill="black" stroke="black" points="80.5257,-621.99 77.243,-632.064 86.0911,-626.236 80.5257,-621.99"/>
<text text-anchor="middle" x="216" y="-383.3" font-family="Times,serif" font-size="14.00">((else)) &amp; (tl1)</text>
</g>
<!-- 5&#45;&gt;2 -->
<g id="edge16" class="edge"><title>5&#45;&gt;2</title>
<path fill="none" stroke="black" d="M295.961,-122.347C312.033,-152.704 345.183,-220.314 357,-282 360.01,-297.714 360.321,-302.349 357,-318 355.183,-326.564 350.817,-327.436 349,-336 339.524,-380.652 379.33,-396.196 361,-438 358.353,-444.037 354.093,-449.493 349.365,-454.204"/>
<polygon fill="black" stroke="black" points="346.888,-451.722 341.715,-460.969 351.525,-456.966 346.888,-451.722"/>
<text text-anchor="middle" x="407.5" y="-296.3" font-family="Times,serif" font-size="14.00">((else)) &amp; ((else))</text>
</g>
<!-- 5&#45;&gt;3 -->
<g id="edge17" class="edge"><title>5&#45;&gt;3</title>
<path fill="none" stroke="black" d="M280.48,-87.2067C275.825,-75.2156 269.472,-58.8511 264.155,-45.1571"/>
<polygon fill="black" stroke="black" points="267.388,-43.8138 260.506,-35.7584 260.863,-46.3472 267.388,-43.8138"/>
<text text-anchor="middle" x="359.5" y="-57.8" font-family="Times,serif" font-size="14.00">((tl0) &amp; (tl1)) | ((tl0) &amp; ((else)))</text>
</g>
<!-- 6 -->
<g id="node7" class="node"><title>6</title>
<ellipse fill="none" stroke="black" cx="457" cy="-105" rx="27" ry="18"/>
<text text-anchor="middle" x="457" y="-101.3" font-family="Times,serif" font-size="14.00">6</text>
</g>
<!-- 6&#45;&gt;2 -->
<g id="edge18" class="edge"><title>6&#45;&gt;2</title>
<path fill="none" stroke="black" d="M484.192,-106.067C575.933,-106.572 869.89,-110.571 898,-141 902.524,-145.897 898.972,-149.405 898,-156 881.153,-270.343 906.575,-325.166 823,-405 779.584,-446.472 751.169,-427.802 692,-438 571.61,-458.749 426.851,-467.972 360.072,-471.353"/>
<polygon fill="black" stroke="black" points="359.856,-467.859 350.04,-471.846 360.199,-474.851 359.856,-467.859"/>
<text text-anchor="middle" x="935.5" y="-296.3" font-family="Times,serif" font-size="14.00">((else)) &amp; ((else))</text>
</g>
<!-- 6&#45;&gt;3 -->
<g id="edge19" class="edge"><title>6&#45;&gt;3</title>
<path fill="none" stroke="black" d="M470.499,-89.0873C478.532,-78.3695 485.629,-64.0891 477,-54 453.56,-26.594 348.565,-20.5038 291.394,-19.2454"/>
<polygon fill="black" stroke="black" points="291.367,-15.7445 281.306,-19.0626 291.24,-22.7433 291.367,-15.7445"/>
<text text-anchor="middle" x="567.5" y="-57.8" font-family="Times,serif" font-size="14.00">((tl0) &amp; ((else))) | ((tl0) &amp; (tl1))</text>
</g>
<!-- 6&#45;&gt;4 -->
<g id="edge20" class="edge"><title>6&#45;&gt;4</title>
<path fill="none" stroke="black" d="M483.167,-110.419C507.027,-114.294 543.287,-119.795 575,-123 609.107,-126.447 859.478,-116.063 883,-141 887.574,-145.85 887.508,-151.089 883,-156 851.326,-190.505 704.674,-139.495 673,-174 662.18,-185.787 663.133,-197.405 673,-210 693.607,-236.306 718.237,-209.403 746,-228 755.242,-234.191 770.795,-256.311 782.489,-274.236"/>
<polygon fill="black" stroke="black" points="779.848,-276.6 788.198,-283.12 785.736,-272.815 779.848,-276.6"/>
<text text-anchor="middle" x="714" y="-188.3" font-family="Times,serif" font-size="14.00">((else)) &amp; (tl1)</text>
</g>
<!-- 7 -->
<g id="node8" class="node"><title>7</title>
<ellipse fill="none" stroke="black" cx="575" cy="-246" rx="27" ry="18"/>
<text text-anchor="middle" x="575" y="-242.3" font-family="Times,serif" font-size="14.00">7</text>
</g>
<!-- 7&#45;&gt;2 -->
<g id="edge21" class="edge"><title>7&#45;&gt;2</title>
<path fill="none" stroke="black" d="M595.617,-258.049C599.395,-260.046 603.31,-262.097 607,-264 622.9,-272.197 633.595,-266.783 643,-282 651.412,-295.61 652.031,-304.793 643,-318 638.592,-324.447 518.641,-364.89 512,-369 473.207,-393.01 475.62,-415.38 436,-438 412.027,-451.687 382.076,-460.65 359.033,-466.076"/>
<polygon fill="black" stroke="black" points="357.974,-462.727 348.979,-468.325 359.502,-469.558 357.974,-462.727"/>
<text text-anchor="middle" x="560.5" y="-383.3" font-family="Times,serif" font-size="14.00">((else)) &amp; ((else))</text>
</g>
<!-- 7&#45;&gt;3 -->
<g id="edge22" class="edge"><title>7&#45;&gt;3</title>
<path fill="none" stroke="black" d="M564.856,-229.133C549.459,-206.313 518.031,-164.406 481,-141 457.466,-126.125 437.619,-145.336 421,-123 411.449,-110.163 413.117,-100.923 421,-87 428.661,-73.4691 443.339,-82.5309 451,-69 454.285,-63.1987 455.282,-59.1097 451,-54 431.014,-30.1501 342.518,-22.5403 291.191,-20.1207"/>
<polygon fill="black" stroke="black" points="291.287,-16.6217 281.147,-19.6909 290.988,-23.6153 291.287,-16.6217"/>
<text text-anchor="middle" x="642.5" y="-144.8" font-family="Times,serif" font-size="14.00">(((else)) &amp; (tl1)) | (((tl0) &amp; ((else))) | ((tl0) &amp; (tl1)))</text>
</g>
<!-- 8&#45;&gt;0 -->
<g id="edge23" class="edge"><title>8&#45;&gt;0</title>
<path fill="none" stroke="black" d="M362.471,-207.375C357.514,-213.253 352.575,-220.446 350,-228 344.837,-243.144 347.05,-248.274 350,-264 351.583,-272.436 355.417,-273.564 357,-282 359.95,-297.726 364.667,-303.957 357,-318 349.911,-330.985 340.485,-326.674 329,-336 312.288,-349.57 279.86,-394.62 261,-405 227.931,-423.2 201.694,-393.617 178,-423 173.815,-428.19 176.068,-431.619 178,-438 180.786,-447.202 187.214,-446.798 190,-456 194.637,-471.313 198.688,-478.564 190,-492 179.415,-508.371 162.877,-495.363 150,-510 118.705,-545.574 147.658,-574.268 119,-612 112.751,-620.228 103.965,-627.039 95.2454,-632.396"/>
<polygon fill="black" stroke="black" points="93.2789,-629.487 86.2925,-637.452 96.721,-635.582 93.2789,-629.487"/>
<text text-anchor="middle" x="219" y="-426.8" font-family="Times,serif" font-size="14.00">((else)) &amp; (tl1)</text>
</g>
<!-- 8&#45;&gt;2 -->
<g id="edge24" class="edge"><title>8&#45;&gt;2</title>
<path fill="none" stroke="black" d="M369.688,-209.603C363.896,-225.61 358.761,-249.483 372,-264 401.323,-296.155 537.677,-249.845 567,-282 577.781,-293.822 577.822,-306.215 567,-318 535.17,-352.661 387.83,-301.339 356,-336 351.491,-340.91 353.366,-344.876 356,-351 360.596,-361.686 369.355,-358.829 375,-369 391.492,-398.715 394.843,-422.971 386,-438 379.506,-449.037 368.136,-456.843 356.825,-462.237"/>
<polygon fill="black" stroke="black" points="355.284,-459.089 347.447,-466.219 358.02,-465.532 355.284,-459.089"/>
<text text-anchor="middle" x="404.5" y="-339.8" font-family="Times,serif" font-size="14.00">((else)) &amp; ((else))</text>
</g>
<!-- 8&#45;&gt;5 -->
<g id="edge25" class="edge"><title>8&#45;&gt;5</title>
<path fill="none" stroke="black" d="M362.138,-176.964C347.808,-163.43 325.93,-142.768 309.471,-127.223"/>
<polygon fill="black" stroke="black" points="311.557,-124.379 301.884,-120.057 306.751,-129.468 311.557,-124.379"/>
<text text-anchor="middle" x="378" y="-144.8" font-family="Times,serif" font-size="14.00">(tl0) &amp; ((else))</text>
</g>
<!-- 8&#45;&gt;6 -->
<g id="edge26" class="edge"><title>8&#45;&gt;6</title>
<path fill="none" stroke="black" d="M403.845,-189.072C497.824,-182.294 806.532,-159.759 810,-156 814.52,-151.1 814.53,-145.891 810,-141 792.204,-121.788 601.03,-125.869 575,-123 547.525,-119.972 516.604,-115.477 493.308,-111.869"/>
<polygon fill="black" stroke="black" points="493.603,-108.373 483.182,-110.283 492.519,-115.289 493.603,-108.373"/>
<text text-anchor="middle" x="846" y="-144.8" font-family="Times,serif" font-size="14.00">(tl0) &amp; (tl1)</text>
</g>
<!-- 9&#45;&gt;2 -->
<g id="edge27" class="edge"><title>9&#45;&gt;2</title>
<path fill="none" stroke="black" d="M622.362,-397.409C615.011,-400.182 606.75,-403.004 599,-405 547.2,-418.34 529.074,-401.717 480,-423 470.129,-427.281 470.648,-433.24 461,-438 428.525,-454.022 388.023,-463.169 359.317,-468.062"/>
<polygon fill="black" stroke="black" points="358.626,-464.628 349.312,-469.677 359.742,-471.539 358.626,-464.628"/>
<text text-anchor="middle" x="528.5" y="-426.8" font-family="Times,serif" font-size="14.00">((else)) &amp; ((else))</text>
</g>
<!-- 9&#45;&gt;4 -->
<g id="edge28" class="edge"><title>9&#45;&gt;4</title>
<path fill="none" stroke="black" d="M659.032,-371.093C670.083,-360.094 686.354,-345.456 703,-336 724.997,-323.504 733.3,-326.85 757,-318 760.104,-316.841 763.322,-315.591 766.528,-314.315"/>
<polygon fill="black" stroke="black" points="768.042,-317.478 775.985,-310.466 765.404,-310.994 768.042,-317.478"/>
<text text-anchor="middle" x="744" y="-339.8" font-family="Times,serif" font-size="14.00">((else)) &amp; (tl1)</text>
</g>
<!-- 9&#45;&gt;5 -->
<g id="edge29" class="edge"><title>9&#45;&gt;5</title>
<path fill="none" stroke="black" d="M625.274,-374.583C617.087,-368.689 608.468,-360.689 604,-351 601.208,-344.946 601.366,-342.124 604,-336 608.596,-325.314 618.404,-328.686 623,-318 629.322,-303.302 633.687,-293.908 623,-282 598.217,-254.385 485.27,-288.033 457,-264 413.788,-227.265 463.46,-180.746 423,-141 396.94,-115.4 354.797,-107.777 324.324,-105.857"/>
<polygon fill="black" stroke="black" points="324.225,-102.349 314.078,-105.396 323.91,-109.342 324.225,-102.349"/>
<text text-anchor="middle" x="498" y="-242.3" font-family="Times,serif" font-size="14.00">(tl0) &amp; ((else))</text>
</g>
<!-- 9&#45;&gt;7 -->
<g id="edge30" class="edge"><title>9&#45;&gt;7</title>
<path fill="none" stroke="black" d="M627.279,-373.298C614.813,-362.829 601.992,-347.832 612,-336 643.143,-299.181 687.857,-354.819 719,-318 729.333,-305.784 729.377,-294.178 719,-282 702.65,-262.813 630.898,-272.022 607,-264 605.956,-263.65 604.906,-263.268 603.854,-262.86"/>
<polygon fill="black" stroke="black" points="605.075,-259.572 594.519,-258.663 602.204,-265.956 605.075,-259.572"/>
<text text-anchor="middle" x="645" y="-339.8" font-family="Times,serif" font-size="14.00">(tl0) &amp; (tl1)</text>
</g>
</g>
</svg>
